<mxfile host="65bd71144e">
    <diagram id="Quffi-lGlGoPFzwKF2kH" name="Page-1">
        <mxGraphModel dx="513" dy="1296" grid="1" gridSize="10" guides="1" tooltips="1" connect="1" arrows="1" fold="1" page="0" pageScale="1" pageWidth="827" pageHeight="1169" math="0" shadow="0">
            <root>
                <mxCell id="0"/>
                <mxCell id="1" parent="0"/>
                <mxCell id="3" value="bookingType == &quot;Solo&quot;" style="rhombus;whiteSpace=wrap;html=1;fillColor=#1ba1e2;fontColor=#ffffff;strokeColor=#006EAF;strokeWidth=3;" parent="1" vertex="1">
                    <mxGeometry x="245" y="130" width="150" height="150" as="geometry"/>
                </mxCell>
                <mxCell id="14" value="" style="edgeStyle=none;html=1;strokeWidth=3;" parent="1" source="5" target="6" edge="1">
                    <mxGeometry relative="1" as="geometry"/>
                </mxCell>
                <mxCell id="5" value="Prompt:&lt;br&gt;&quot;Please enter the number of drivers (2 - 5): &quot;" style="shape=parallelogram;perimeter=parallelogramPerimeter;whiteSpace=wrap;html=1;fixedSize=1;fillColor=#008a00;fontColor=#ffffff;strokeColor=#005700;strokeWidth=3;" parent="1" vertex="1">
                    <mxGeometry x="185" y="330" width="270" height="60" as="geometry"/>
                </mxCell>
                <mxCell id="6" value="return getValidIntegerInput&lt;br&gt;(&quot;number of drivers, 2, 5)" style="strokeWidth=3;html=1;shape=mxgraph.flowchart.terminator;whiteSpace=wrap;fillColor=#d80073;strokeColor=#A50040;shadow=1;fontColor=#ffffff;textShadow=1;spacing=2;" parent="1" vertex="1">
                    <mxGeometry x="245" y="430" width="150" height="90" as="geometry"/>
                </mxCell>
                <mxCell id="7" value="return 1" style="strokeWidth=3;html=1;shape=mxgraph.flowchart.terminator;whiteSpace=wrap;fillColor=#d80073;strokeColor=#A50040;shadow=1;fontColor=#ffffff;textShadow=1;spacing=2;" parent="1" vertex="1">
                    <mxGeometry x="450" y="160" width="150" height="90" as="geometry"/>
                </mxCell>
                <mxCell id="9" value="&lt;span style=&quot;color: rgb(255, 255, 255);&quot;&gt;getDriverCount&lt;/span&gt;&lt;br&gt;&lt;span style=&quot;color: rgb(255, 255, 255);&quot;&gt;(&amp;amp;bookingType)&lt;/span&gt;" style="strokeWidth=3;html=1;shape=mxgraph.flowchart.terminator;whiteSpace=wrap;fillColor=#d80073;strokeColor=#A50040;shadow=1;fontColor=#ffffff;textShadow=1;spacing=2;" parent="1" vertex="1">
                    <mxGeometry x="245" y="-10" width="150" height="90" as="geometry"/>
                </mxCell>
                <mxCell id="10" value="" style="edgeStyle=none;html=1;strokeWidth=3;shadow=1;textShadow=1;spacing=2;" parent="1" edge="1">
                    <mxGeometry relative="1" as="geometry">
                        <mxPoint x="319.58" y="80" as="sourcePoint"/>
                        <mxPoint x="319.58" y="130" as="targetPoint"/>
                    </mxGeometry>
                </mxCell>
                <mxCell id="15" value="" style="endArrow=classic;html=1;exitX=1;exitY=0.5;exitDx=0;exitDy=0;entryX=0;entryY=0.5;entryDx=0;entryDy=0;entryPerimeter=0;strokeWidth=3;" parent="1" source="3" target="7" edge="1">
                    <mxGeometry relative="1" as="geometry">
                        <mxPoint x="410" y="220" as="sourcePoint"/>
                        <mxPoint x="510" y="220" as="targetPoint"/>
                    </mxGeometry>
                </mxCell>
                <mxCell id="16" value="True" style="edgeLabel;resizable=0;html=1;;align=center;verticalAlign=middle;" parent="15" connectable="0" vertex="1">
                    <mxGeometry relative="1" as="geometry">
                        <mxPoint x="-13" as="offset"/>
                    </mxGeometry>
                </mxCell>
                <mxCell id="17" value="" style="endArrow=classic;html=1;exitX=0.5;exitY=1;exitDx=0;exitDy=0;entryX=0.5;entryY=0;entryDx=0;entryDy=0;strokeWidth=3;" parent="1" source="3" target="5" edge="1">
                    <mxGeometry relative="1" as="geometry">
                        <mxPoint x="300" y="190" as="sourcePoint"/>
                        <mxPoint x="400" y="190" as="targetPoint"/>
                    </mxGeometry>
                </mxCell>
                <mxCell id="18" value="False" style="edgeLabel;resizable=0;html=1;;align=center;verticalAlign=middle;" parent="17" connectable="0" vertex="1">
                    <mxGeometry relative="1" as="geometry">
                        <mxPoint y="-15" as="offset"/>
                    </mxGeometry>
                </mxCell>
            </root>
        </mxGraphModel>
    </diagram>
</mxfile>